<svg width="24" height="24" viewBox="0 0 24 24" fill="none" xmlns="http://www.w3.org/2000/svg">
<path d="M20.8165 11.0947C20.6513 10.9627 20.4584 10.8696 20.2523 10.8224C20.0462 10.7752 19.832 10.775 19.6258 10.8218C19.3171 10.8915 18.9968 10.8913 18.6882 10.8212C18.3795 10.7511 18.0905 10.6129 17.8422 10.4167C17.594 10.2204 17.3927 9.97115 17.2532 9.68709C17.1137 9.40302 17.0395 9.09136 17.036 8.77491C17.0343 8.40304 16.8859 8.04687 16.6229 7.7839C16.36 7.52093 16.0038 7.37243 15.632 7.37071C15.3155 7.36725 15.0038 7.29307 14.7197 7.15358C14.4357 7.0141 14.1864 6.81284 13.9901 6.56456C13.7939 6.31627 13.6557 6.02724 13.5856 5.71862C13.5155 5.41001 13.5153 5.08962 13.585 4.78092C13.6313 4.57421 13.6307 4.35974 13.5831 4.15332C13.5356 3.94689 13.4423 3.75375 13.3103 3.58813C13.1782 3.42252 13.0106 3.28863 12.82 3.19634C12.6293 3.10405 12.4203 3.0557 12.2085 3.05486C12.1893 3.05477 12.1705 3.05469 12.1513 3.05469C10.3295 3.05501 8.54884 3.59625 7.03502 4.60978C5.52121 5.62331 4.34241 7.0635 3.64807 8.74777C2.95373 10.432 2.7751 12.2846 3.13485 14.0705C3.49459 15.8564 4.3765 17.4953 5.66878 18.7794C6.96105 20.0635 8.6055 20.9349 10.3937 21.2833C12.1818 21.6317 14.0332 21.4414 15.713 20.7363C17.3928 20.0313 18.8255 18.8434 19.8294 17.3232C20.8333 15.803 21.3632 14.0189 21.352 12.1972V12.1971C21.3512 11.9849 21.3027 11.7756 21.21 11.5848C21.1173 11.394 20.9828 11.2264 20.8165 11.0947ZM7.51069 9.73392C7.65913 9.58547 7.84827 9.48438 8.05417 9.44342C8.26007 9.40246 8.4735 9.42348 8.66745 9.50382C8.86141 9.58416 9.02719 9.72021 9.14382 9.89477C9.26046 10.0693 9.32271 10.2745 9.32271 10.4845C9.32271 10.6944 9.26046 10.8996 9.14382 11.0742C9.02719 11.2488 8.86141 11.3848 8.66745 11.4651C8.4735 11.5455 8.26007 11.5665 8.05417 11.5255C7.84827 11.4846 7.65913 11.3835 7.51069 11.235C7.31164 11.036 7.19981 10.766 7.19981 10.4845C7.19981 10.203 7.31164 9.93299 7.51069 9.73392V9.73392ZM9.71945 16.1885C9.571 16.3369 9.38187 16.438 9.17596 16.479C8.97006 16.5199 8.75664 16.4989 8.56268 16.4186C8.36873 16.3382 8.20295 16.2022 8.08631 16.0276C7.96968 15.8531 7.90743 15.6478 7.90743 15.4379C7.90743 15.228 7.96968 15.0227 8.08631 14.8482C8.20295 14.6736 8.36873 14.5376 8.56268 14.4572C8.75664 14.3769 8.97006 14.3559 9.17596 14.3968C9.38187 14.4378 9.571 14.5389 9.71945 14.6873C9.9185 14.8864 10.0303 15.1564 10.0303 15.4379C10.0303 15.7194 9.9185 15.9894 9.71945 16.1885V16.1885ZM12.1103 12.6503C11.9618 12.5019 11.8608 12.3127 11.8198 12.1068C11.7788 11.9009 11.7999 11.6875 11.8802 11.4935C11.9605 11.2996 12.0966 11.1338 12.2711 11.0172C12.4457 10.9005 12.6509 10.8383 12.8609 10.8383C13.0708 10.8383 13.276 10.9005 13.4506 11.0172C13.6251 11.1338 13.7612 11.2996 13.8415 11.4935C13.9219 11.6875 13.9429 11.9009 13.9019 12.1068C13.861 12.3127 13.7599 12.5019 13.6114 12.6503C13.4124 12.8494 13.1424 12.9612 12.8609 12.9612C12.5793 12.9612 12.3094 12.8494 12.1103 12.6503V12.6503ZM15.3805 16.8961C15.2321 17.0446 15.0429 17.1456 14.837 17.1866C14.6311 17.2276 14.4177 17.2065 14.2237 17.1262C14.0298 17.0459 13.864 16.9098 13.7474 16.7353C13.6307 16.5607 13.5685 16.3555 13.5685 16.1455C13.5685 15.9356 13.6307 15.7304 13.7474 15.5558C13.864 15.3813 14.0298 15.2452 14.2237 15.1649C14.4177 15.0845 14.6311 15.0635 14.837 15.1045C15.0429 15.1454 15.2321 15.2465 15.3805 15.395C15.5796 15.594 15.6914 15.864 15.6914 16.1455C15.6914 16.4271 15.5796 16.697 15.3805 16.8961V16.8961Z" fill="#495340"/>
</svg>
